<svg width="36" height="32" viewBox="0 0 36 32" fill="none" xmlns="http://www.w3.org/2000/svg">
<path d="M16.8438 4.36879C17.5375 3.87504 18.4625 3.87504 19.1563 4.36879C20.5625 5.33754 22.2813 6.00004 24 6.00004C25.6813 6.00004 27.4625 5.32504 28.8375 4.36879C29.5813 3.83754 30.5938 3.88129 31.2875 4.47504C32.1875 5.21879 33.3188 5.78754 34.45 6.05004C35.525 6.30004 36.1938 7.37504 35.9438 8.45004C35.6938 9.52504 34.6188 10.1938 33.5438 9.94379C32.0125 9.58754 30.7375 8.91254 29.9063 8.38129C28.0938 9.35629 26.0625 10 24 10C22.0063 10 20.2125 9.38129 18.975 8.81879C18.6125 8.65004 18.2813 8.48754 18 8.33754C17.7188 8.48754 17.3938 8.65629 17.025 8.81879C15.7875 9.38129 13.9938 10 12 10C9.93755 10 7.9063 9.35629 6.0938 8.38754C5.2563 8.91254 3.98755 9.59379 2.4563 9.95004C1.3813 10.2 0.306297 9.53129 0.056297 8.45629C-0.193703 7.38129 0.475047 6.30629 1.55005 6.05629C2.67505 5.78754 3.81255 5.21879 4.7063 4.47504C5.40005 3.88129 6.41255 3.84379 7.1563 4.36879C8.5438 5.32504 10.3188 6.00004 12 6.00004C13.7188 6.00004 15.4375 5.33754 16.8438 4.36879ZM19.1563 22.3688C20.5625 23.3375 22.2813 24 24 24C25.6813 24 27.4625 23.325 28.8375 22.3688C29.5813 21.8375 30.5938 21.8813 31.2875 22.475C32.1875 23.2188 33.3188 23.7875 34.45 24.05C35.525 24.3 36.1938 25.375 35.9438 26.45C35.6938 27.525 34.6188 28.1938 33.5438 27.9438C32.0125 27.5875 30.7375 26.9125 29.9063 26.3813C28.0938 27.3563 26.0625 28 24 28C22.0063 28 20.2125 27.3813 18.975 26.8188C18.6125 26.65 18.2813 26.4875 18 26.3375C17.7188 26.4875 17.3938 26.6563 17.025 26.8188C15.7875 27.3813 13.9938 28 12 28C9.93755 28 7.9063 27.3563 6.0938 26.3875C5.2563 26.9125 3.98755 27.5938 2.4563 27.95C1.3813 28.2 0.306297 27.5313 0.056297 26.4563C-0.193703 25.3813 0.475047 24.3063 1.55005 24.0563C2.6813 23.7938 3.81255 23.225 4.71255 22.4813C5.4063 21.8938 6.4188 21.85 7.16255 22.375C8.5438 23.325 10.3188 24 12 24C13.7188 24 15.4375 23.3375 16.8438 22.3688C17.5375 21.875 18.4625 21.875 19.1563 22.3688ZM19.1563 13.3688C20.5625 14.3375 22.2813 15 24 15C25.6813 15 27.4625 14.325 28.8375 13.3688C29.5813 12.8375 30.5938 12.8813 31.2875 13.475C32.1875 14.2188 33.3188 14.7875 34.45 15.05C35.525 15.3 36.1938 16.375 35.9438 17.45C35.6938 18.525 34.6188 19.1938 33.5438 18.9438C32.0125 18.5875 30.7375 17.9125 29.9063 17.3813C28.0938 18.3563 26.0625 19 24 19C22.0063 19 20.2125 18.3813 18.975 17.8188C18.6125 17.65 18.2813 17.4875 18 17.3375C17.7188 17.4875 17.3938 17.6563 17.025 17.8188C15.7875 18.3813 13.9938 19 12 19C9.93755 19 7.9063 18.3563 6.0938 17.3875C5.2563 17.9125 3.98755 18.5938 2.4563 18.95C1.3813 19.2 0.306297 18.5313 0.056297 17.4563C-0.193703 16.3813 0.475047 15.3063 1.55005 15.0563C2.6813 14.7938 3.81255 14.225 4.71255 13.4813C5.4063 12.8875 6.4188 12.85 7.16255 13.375C8.5438 14.325 10.3188 15 12 15C13.7188 15 15.4375 14.3375 16.8438 13.3688C17.5375 12.875 18.4625 12.875 19.1563 13.3688Z" fill="black"/>
</svg>
