<svg width="28" height="32" viewBox="0 0 28 32" fill="none" xmlns="http://www.w3.org/2000/svg">
<g clip-path="url(#clip0_9_979)">
<path d="M21.8375 2.78746C22.2063 1.93121 21.9313 0.931205 21.175 0.381205C20.4188 -0.168795 19.3875 -0.118795 18.6813 0.493705L2.68128 14.4937C2.05628 15.0437 1.83128 15.925 2.12503 16.7C2.41878 17.475 3.16878 18 4.00003 18H10.9688L6.16253 29.2125C5.79378 30.0687 6.06878 31.0687 6.82503 31.6187C7.58128 32.1687 8.61253 32.1187 9.31878 31.5062L25.3188 17.5062C25.9438 16.9562 26.1688 16.075 25.875 15.3C25.5813 14.525 24.8375 14.0062 24 14.0062H17.0313L21.8375 2.78746Z" fill="black"/>
</g>
<defs>
<clipPath id="clip0_9_979">
<rect width="28" height="32" fill="white"/>
</clipPath>
</defs>
</svg>
