<svg width="24" height="32" viewBox="0 0 24 32" fill="none" xmlns="http://www.w3.org/2000/svg">
<g clip-path="url(#clip0_9_973)">
<path d="M6 0C4.89375 0 4 0.89375 4 2V8H8V2C8 0.89375 7.10625 0 6 0ZM18 0C16.8937 0 16 0.89375 16 2V8H20V2C20 0.89375 19.1063 0 18 0ZM2 10C0.89375 10 0 10.8938 0 12C0 13.1062 0.89375 14 2 14V16C2 20.8375 5.4375 24.875 10 25.8V30C10 31.1063 10.8938 32 12 32C13.1062 32 14 31.1063 14 30V25.8C18.5625 24.875 22 20.8375 22 16V14C23.1063 14 24 13.1062 24 12C24 10.8938 23.1063 10 22 10H2Z" fill="black"/>
</g>
<defs>
<clipPath id="clip0_9_973">
<rect width="24" height="32" fill="white"/>
</clipPath>
</defs>
</svg>
