<svg width="32" height="32" viewBox="0 0 32 32" fill="none" xmlns="http://www.w3.org/2000/svg">
<g clip-path="url(#clip0_9_991)">
<path d="M0 16C0 11.7565 1.68571 7.68687 4.68629 4.68629C7.68687 1.68571 11.7565 0 16 0C20.2435 0 24.3131 1.68571 27.3137 4.68629C30.3143 7.68687 32 11.7565 32 16C32 20.2435 30.3143 24.3131 27.3137 27.3137C24.3131 30.3143 20.2435 32 16 32C11.7565 32 7.68687 30.3143 4.68629 27.3137C1.68571 24.3131 0 20.2435 0 16ZM20 22C20 20.3188 18.9688 18.8813 17.5 18.2938V5.5C17.5 4.66875 16.8312 4 16 4C15.1687 4 14.5 4.66875 14.5 5.5V18.2938C13.0312 18.8875 12 20.325 12 22C12 24.2062 13.7937 26 16 26C18.2062 26 20 24.2062 20 22ZM9 11C9.53043 11 10.0391 10.7893 10.4142 10.4142C10.7893 10.0391 11 9.53043 11 9C11 8.46957 10.7893 7.96086 10.4142 7.58579C10.0391 7.21071 9.53043 7 9 7C8.46957 7 7.96086 7.21071 7.58579 7.58579C7.21071 7.96086 7 8.46957 7 9C7 9.53043 7.21071 10.0391 7.58579 10.4142C7.96086 10.7893 8.46957 11 9 11ZM8 16C8 15.4696 7.78929 14.9609 7.41421 14.5858C7.03914 14.2107 6.53043 14 6 14C5.46957 14 4.96086 14.2107 4.58579 14.5858C4.21071 14.9609 4 15.4696 4 16C4 16.5304 4.21071 17.0391 4.58579 17.4142C4.96086 17.7893 5.46957 18 6 18C6.53043 18 7.03914 17.7893 7.41421 17.4142C7.78929 17.0391 8 16.5304 8 16ZM26 18C26.5304 18 27.0391 17.7893 27.4142 17.4142C27.7893 17.0391 28 16.5304 28 16C28 15.4696 27.7893 14.9609 27.4142 14.5858C27.0391 14.2107 26.5304 14 26 14C25.4696 14 24.9609 14.2107 24.5858 14.5858C24.2107 14.9609 24 15.4696 24 16C24 16.5304 24.2107 17.0391 24.5858 17.4142C24.9609 17.7893 25.4696 18 26 18ZM25 9C25 8.46957 24.7893 7.96086 24.4142 7.58579C24.0391 7.21071 23.5304 7 23 7C22.4696 7 21.9609 7.21071 21.5858 7.58579C21.2107 7.96086 21 8.46957 21 9C21 9.53043 21.2107 10.0391 21.5858 10.4142C21.9609 10.7893 22.4696 11 23 11C23.5304 11 24.0391 10.7893 24.4142 10.4142C24.7893 10.0391 25 9.53043 25 9Z" fill="black"/>
</g>
<defs>
<clipPath id="clip0_9_991">
<rect width="32" height="32" fill="white"/>
</clipPath>
</defs>
</svg>
