<svg width="40" height="32" viewBox="0 0 40 32" fill="none" xmlns="http://www.w3.org/2000/svg">
<path d="M2 2C0.89375 2 0 2.89375 0 4V28C0 29.1063 0.89375 30 2 30C3.10625 30 4 29.1063 4 28V16.6437L9.325 6H4V4C4 2.89375 3.10625 2 2 2ZM25.325 6H20.6812L20.3438 6.66875L14.675 18H19.3188L19.6562 17.3312L25.325 6ZM22.675 18H27.3188L27.6562 17.3312L33.325 6H28.6812L28.3438 6.66875L22.675 18ZM12.675 6L12.3375 6.66875L6.675 18H11.3188L11.6562 17.3312L17.325 6H12.6812H12.675ZM30.675 18H36V28C36 29.1063 36.8937 30 38 30C39.1063 30 40 29.1063 40 28V4C40 2.89375 39.1063 2 38 2C36.8937 2 36 2.89375 36 4V7.35625L30.675 18Z" fill="black"/>
</svg>
