<svg width="18" height="24" viewBox="0 0 18 24" fill="none" xmlns="http://www.w3.org/2000/svg">
<g clip-path="url(#clip0_19_56)">
<path d="M10.0595 1.94067C9.47354 1.35474 8.52197 1.35474 7.93604 1.94067L0.436035 9.44067C-0.149902 10.0266 -0.149902 10.9782 0.436035 11.5641C1.02197 12.15 1.97354 12.15 2.55947 11.5641L7.5001 6.6188V21C7.5001 21.8297 8.17041 22.5 9.0001 22.5C9.82979 22.5 10.5001 21.8297 10.5001 21V6.62349L15.4407 11.5594C16.0267 12.1454 16.9782 12.1454 17.5642 11.5594C18.1501 10.9735 18.1501 10.0219 17.5642 9.43599L10.0642 1.93599L10.0595 1.94067Z" fill="white"/>
</g>
<defs>
<clipPath id="clip0_19_56">
<rect width="18" height="24" fill="white"/>
</clipPath>
</defs>
</svg>
