<svg width="234" height="16" viewBox="0 0 234 16" fill="none" xmlns="http://www.w3.org/2000/svg">
<rect x="66" y="0.5" width="3" height="15" fill="white"/>
<path fill-rule="evenodd" clip-rule="evenodd" d="M72 8.98237V0.5H75V8.44034L87 12.4512L99 8.44034V0.5H102V8.98237C102 9.95347 101.38 10.8156 100.462 11.1227L87.7115 15.3842C87.2497 15.5386 86.7503 15.5386 86.2885 15.3842L73.5385 11.1227C72.6197 10.8156 72 9.95347 72 8.98237Z" fill="white"/>
<path fill-rule="evenodd" clip-rule="evenodd" d="M204 0.5V2.95943C204 3.9279 204.62 4.78771 205.538 5.09397L214.257 8L205.538 10.906C204.62 11.2123 204 12.0721 204 13.0406V15.5H207V13.5811L219 9.58114L231 13.5811V15.5H234V13.0406C234 12.0721 233.38 11.2123 232.462 10.906L223.743 8L232.462 5.09397C233.38 4.78771 234 3.9279 234 2.95943V0.5H231V2.41886L219 6.41886L207 2.41886V0.5H204Z" fill="white"/>
<path fill-rule="evenodd" clip-rule="evenodd" d="M171 3.5L174 0.5H198.75C199.993 0.5 201 1.50736 201 2.75V13.25C201 14.4926 199.993 15.5 198.75 15.5H173.25C172.007 15.5 171 14.4926 171 13.25V3.5ZM174 3.5V12.5H198V3.5H174Z" fill="white"/>
<path fill-rule="evenodd" clip-rule="evenodd" d="M138 3.5L141 0.5H165.75C166.993 0.5 168 1.50736 168 2.75V6.5H165V3.5H141V6.5H165L168 9.5L168 13.25C168 14.4926 166.993 15.5 165.75 15.5H159H141H140.25C139.007 15.5 138 14.4926 138 13.25V3.5ZM141 12.5H159H165V9.5H141V12.5Z" fill="white"/>
<path fill-rule="evenodd" clip-rule="evenodd" d="M108 0.5L105 3.5V13.25C105 14.4926 106.007 15.5 107.25 15.5H135V12.5H108L108 9.5H132V6.5H108V3.5H132H135V0.5H132H108Z" fill="white"/>
<path fill-rule="evenodd" clip-rule="evenodd" d="M33 3.5L36 0.5H60.75C61.9926 0.5 63 1.50736 63 2.75V6.5H60V3.5H36V6.5H60L63 9.5V15.5H60V9.5H36V15.5H33V3.5Z" fill="white"/>
<path fill-rule="evenodd" clip-rule="evenodd" d="M15 0.5H3L0 3.5V15.5H3H15H23.7729C24.2171 15.5 24.6514 15.3685 25.021 15.1221L28.9981 12.4707C29.624 12.0534 30 11.3509 30 10.5986V5.40139C30 4.64909 29.624 3.94657 28.9981 3.52928L25.021 0.877888C24.6514 0.631486 24.2171 0.5 23.7729 0.5H15ZM15 3.5H3V12.5H15H23.5458L27 10.1972V5.80278L23.5458 3.5L15 3.5Z" fill="white"/>
</svg>
