<svg width="18" height="16" viewBox="0 0 18 16" fill="none" xmlns="http://www.w3.org/2000/svg">
<path d="M9.67193 0.421875C9.54693 0.1625 9.28443 0 8.99693 0C8.70943 0 8.44693 0.1625 8.32193 0.421875L6.17818 4.8375L1.39068 5.54688C1.10943 5.5875 0.875058 5.78438 0.787558 6.05625C0.700058 6.32812 0.771933 6.62188 0.971933 6.82188L4.44381 10.2625L3.62506 15.1219C3.57818 15.4031 3.69381 15.6875 3.92818 15.8562C4.16256 16.025 4.46881 16.0438 4.71881 15.9094L9.00006 13.6219L13.2813 15.9094C13.5344 16.0438 13.8407 16.025 14.0719 15.8562C14.3032 15.6875 14.4219 15.4031 14.3751 15.1219L13.5501 10.2625L17.0251 6.81875C17.2282 6.61875 17.2969 6.32188 17.2094 6.05312C17.1219 5.78437 16.8876 5.5875 16.6063 5.54375L11.8157 4.8375L9.67193 0.421875Z" fill="black"/>
</svg>
