<svg width="94" height="24" viewBox="0 0 94 24" fill="none" xmlns="http://www.w3.org/2000/svg">
<path d="M0.5 12C0.5 6.15048 4.68538 1.27851 10.2248 0.215398C9.33918 6.94563 6.36202 13.0169 1.96752 17.7551C1.03193 16.0465 0.5 14.0854 0.5 12Z" fill="#E22E1D"/>
<path d="M11.9987 0.0102808L9.06245 23.5004C10.1514 23.8254 11.3053 24 12.5 24C13.6947 24 14.8486 23.8254 15.9375 23.5004L13.0013 0.0102808C12.835 0.00344971 12.6679 0 12.5 0C12.3321 0 12.165 0.00344971 11.9987 0.0102808Z" fill="#E22E1D"/>
<path d="M23.0325 17.7551C18.638 13.0169 15.6608 6.94563 14.7752 0.215398C20.3146 1.27851 24.5 6.15048 24.5 12C24.5 14.0854 23.9681 16.0465 23.0325 17.7551Z" fill="#E22E1D"/>
<path d="M36.4434 5.91406V18H33.812V5.91406H36.4434ZM39.4067 5.91406V8.05566H30.915V5.91406H39.4067ZM40.7349 5.91406H44.7441C45.5521 5.91406 46.2466 6.05241 46.8276 6.3291C47.4087 6.60579 47.8542 7.0153 48.1641 7.55762C48.4795 8.09993 48.6372 8.76953 48.6372 9.56641C48.6372 10.2415 48.5487 10.8115 48.3716 11.2764C48.1945 11.7357 47.9455 12.1175 47.6245 12.4219C47.3035 12.7262 46.9245 12.9725 46.4873 13.1606L45.6489 13.6504H42.4531L42.4448 11.5171H44.6777C44.9766 11.5171 45.2228 11.4479 45.4165 11.3096C45.6102 11.1712 45.7541 10.9748 45.8481 10.7202C45.9478 10.4601 45.9976 10.153 45.9976 9.79883C45.9976 9.43359 45.9505 9.12093 45.8564 8.86084C45.7679 8.60075 45.6323 8.40153 45.4497 8.26318C45.2726 8.12484 45.0374 8.05566 44.7441 8.05566H43.3745V18H40.7349V5.91406ZM46.1636 18L43.9805 12.6294L46.7529 12.6211L48.9858 17.8755V18H46.1636ZM53.0117 5.91406V18H50.3804V5.91406H53.0117ZM59.1128 13.8247H56.6641V11.6831H59.1128C59.4282 11.6831 59.6828 11.6112 59.8765 11.4673C60.0701 11.3179 60.2113 11.1159 60.2998 10.8613C60.3883 10.6012 60.4326 10.3079 60.4326 9.98145C60.4326 9.63835 60.3883 9.32015 60.2998 9.02686C60.2113 8.73356 60.0701 8.49837 59.8765 8.32129C59.6828 8.14421 59.4282 8.05566 59.1128 8.05566H57.5771V18H54.9375V5.91406H59.1128C59.9373 5.91406 60.6457 6.08838 61.2378 6.43701C61.8354 6.78564 62.2948 7.26432 62.6157 7.87305C62.9367 8.48177 63.0972 9.17904 63.0972 9.96484C63.0972 10.7451 62.9367 11.423 62.6157 11.9985C62.2948 12.5741 61.8354 13.0223 61.2378 13.3433C60.6457 13.6642 59.9373 13.8247 59.1128 13.8247ZM68.8496 12.7954H66.3594L66.3511 10.9609H68.418C68.75 10.9609 69.0184 10.9084 69.2231 10.8032C69.4279 10.6925 69.5745 10.5321 69.6631 10.3218C69.7572 10.1115 69.8042 9.8514 69.8042 9.5415C69.8042 9.1818 69.7572 8.89404 69.6631 8.67822C69.5745 8.4624 69.4307 8.30469 69.2314 8.20508C69.0322 8.10547 68.7721 8.05566 68.4512 8.05566H67.3057V18H64.666V5.91406H68.4512C69.0765 5.91406 69.6326 5.98047 70.1196 6.11328C70.6121 6.24609 71.0299 6.45085 71.373 6.72754C71.7217 7.00423 71.9873 7.3501 72.1699 7.76514C72.3525 8.18018 72.4438 8.66992 72.4438 9.23438C72.4438 9.72689 72.347 10.189 72.1533 10.6206C71.9652 11.0467 71.6553 11.3926 71.2236 11.6582C70.7975 11.9238 70.222 12.0677 69.4971 12.0898L68.8496 12.7954ZM68.7583 18H65.6621L66.6333 15.8667H68.7583C69.0627 15.8667 69.3034 15.8031 69.4805 15.6758C69.6631 15.543 69.7931 15.3659 69.8706 15.1445C69.9481 14.9232 69.9868 14.6742 69.9868 14.3975C69.9868 14.071 69.9508 13.7887 69.8789 13.5508C69.807 13.3073 69.688 13.1219 69.522 12.9946C69.3615 12.8618 69.1374 12.7954 68.8496 12.7954H66.7412L66.7578 10.9609H69.2646L69.8872 11.6914C70.5734 11.6637 71.1157 11.7827 71.5142 12.0483C71.9126 12.3084 72.1948 12.6543 72.3608 13.0859C72.5269 13.512 72.6099 13.9603 72.6099 14.4307C72.6099 15.2165 72.466 15.875 72.1782 16.4062C71.8905 16.932 71.4588 17.3304 70.8833 17.6016C70.3133 17.8672 69.605 18 68.7583 18ZM82.9194 11.0356V12.9614C82.9194 13.8192 82.8143 14.5745 82.604 15.2275C82.3937 15.875 82.0921 16.4173 81.6992 16.8545C81.3118 17.2917 80.847 17.6209 80.3047 17.8423C79.7679 18.0581 79.173 18.166 78.52 18.166C77.8615 18.166 77.2611 18.0581 76.7188 17.8423C76.1764 17.6209 75.7088 17.2917 75.3159 16.8545C74.923 16.4173 74.6187 15.875 74.4028 15.2275C74.1925 14.5745 74.0874 13.8192 74.0874 12.9614V11.0356C74.0874 10.1668 74.1925 9.40316 74.4028 8.74463C74.6187 8.08057 74.9202 7.52995 75.3076 7.09277C75.7005 6.65007 76.1654 6.31527 76.7021 6.08838C77.2445 5.86149 77.8449 5.74805 78.5034 5.74805C79.1619 5.74805 79.7596 5.86149 80.2964 6.08838C80.8387 6.31527 81.3035 6.65007 81.6909 7.09277C82.0838 7.52995 82.3854 8.08057 82.5957 8.74463C82.8115 9.40316 82.9194 10.1668 82.9194 11.0356ZM80.2715 12.9614V11.019C80.2715 10.4601 80.2327 9.98421 80.1553 9.59131C80.0833 9.1984 79.9727 8.87744 79.8232 8.62842C79.6738 8.37939 79.4884 8.19678 79.2671 8.08057C79.0513 7.96436 78.7967 7.90625 78.5034 7.90625C78.2046 7.90625 77.9445 7.96436 77.7231 8.08057C77.5018 8.19678 77.3164 8.37939 77.167 8.62842C77.0231 8.87744 76.9152 9.1984 76.8433 9.59131C76.7769 9.98421 76.7437 10.4601 76.7437 11.019V12.9614C76.7437 13.5037 76.7796 13.9686 76.8516 14.356C76.9235 14.7433 77.0342 15.0588 77.1836 15.3022C77.333 15.5457 77.5184 15.7256 77.7397 15.8418C77.9611 15.958 78.2212 16.0161 78.52 16.0161C78.8078 16.0161 79.0596 15.958 79.2754 15.8418C79.4967 15.7256 79.6794 15.5457 79.8232 15.3022C79.9727 15.0588 80.0833 14.7433 80.1553 14.356C80.2327 13.9686 80.2715 13.5037 80.2715 12.9614ZM86.7295 5.91406L88.2817 9.93164L89.7759 5.91406H92.731L89.917 11.8989L92.7891 18H89.7593L88.2153 13.8994L86.6631 18H83.6582L86.5635 11.874L83.7246 5.91406H86.7295Z" fill="white"/>
</svg>
